
<svg xmlns="http://www.w3.org/2000/svg" viewBox="0 0 904.9 19.6"><defs><style>.cls-1{fill:#4fa2ba;stroke:#539ba3;stroke-miterlimit:10;}.cls-1,.cls-2{opacity:0.5;}.cls-3{fill:#539ba3;}</style></defs><g id="Layer_2" data-name="Layer 2"><g id="Layer_1-2" data-name="Layer 1"><line class="cls-1" x1="22.73" y1="9.81" x2="882.16" y2="9.81"/><g class="cls-2"><path class="cls-3" d="M882,9.81a12.46,12.46,0,0,1,1.62-3.29,19.15,19.15,0,0,1,2.22-2.68,18.48,18.48,0,0,1,2.68-2.22A12,12,0,0,1,891.81,0a12.46,12.46,0,0,1-1.62,3.29A17.94,17.94,0,0,1,888,6a18.13,18.13,0,0,1-2.68,2.23A12.25,12.25,0,0,1,882,9.81Z"/></g><g class="cls-2"><path class="cls-3" d="M882,9.81a11.94,11.94,0,0,1,3.28,1.61A19.87,19.87,0,0,1,888,13.64a18.48,18.48,0,0,1,2.22,2.68,12.25,12.25,0,0,1,1.62,3.28A12,12,0,0,1,888.51,18a18.78,18.78,0,0,1-4.89-4.9A12.4,12.4,0,0,1,882,9.81Z"/></g><g class="cls-2"><path class="cls-3" d="M885.4,9.81a15.1,15.1,0,0,1,4.87-2,22.48,22.48,0,0,1,9.75,0,15.41,15.41,0,0,1,4.88,2,15.15,15.15,0,0,1-4.88,2,21.83,21.83,0,0,1-4.87.54,23.16,23.16,0,0,1-4.88-.54A15.57,15.57,0,0,1,885.4,9.81Z"/></g><g class="cls-2"><path class="cls-3" d="M22.9,9.81a12.46,12.46,0,0,1-3.29-1.62A19.22,19.22,0,0,1,16.93,6a17.88,17.88,0,0,1-2.22-2.67A12.16,12.16,0,0,1,13.09,0a12,12,0,0,1,3.29,1.62,17.88,17.88,0,0,1,2.67,2.22,18.55,18.55,0,0,1,2.23,2.68A12.46,12.46,0,0,1,22.9,9.81Z"/></g><g class="cls-2"><path class="cls-3" d="M22.9,9.81a12.4,12.4,0,0,1-1.62,3.28A18.78,18.78,0,0,1,16.39,18,12,12,0,0,1,13.1,19.6a12,12,0,0,1,1.62-3.28,18.48,18.48,0,0,1,2.22-2.68,19.87,19.87,0,0,1,2.68-2.22A11.94,11.94,0,0,1,22.9,9.81Z"/></g><g class="cls-2"><path class="cls-3" d="M19.5,9.81a15.57,15.57,0,0,1-4.87,2,23.16,23.16,0,0,1-4.88.54,21.83,21.83,0,0,1-4.87-.54A15.15,15.15,0,0,1,0,9.81a15.41,15.41,0,0,1,4.88-2,21.82,21.82,0,0,1,4.87-.53,21.92,21.92,0,0,1,4.88.54A15.1,15.1,0,0,1,19.5,9.81Z"/></g></g></g></svg>